<svg width="136" height="32" viewBox="0 0 136 32" fill="none" xmlns="http://www.w3.org/2000/svg">
<path d="M10.368 31.4224C7.424 31.4224 5.0816 30.6288 3.3408 29.0416C1.6256 27.4288 0.768 25.2656 0.768 22.552H6.528C6.528 23.7296 6.8736 24.6768 7.5648 25.3936C8.256 26.0848 9.1904 26.4304 10.368 26.4304C11.5456 26.4304 12.48 26.0976 13.1712 25.432C13.8624 24.7408 14.208 23.8064 14.208 22.6288V8.344H7.872V2.968H19.968V22.6288C19.968 25.3424 19.1104 27.4928 17.3952 29.08C15.68 30.6416 13.3376 31.4224 10.368 31.4224ZM34.545 31.384C32.6762 31.384 31.0506 31.0384 29.6682 30.3472C28.2858 29.6304 27.2106 28.6448 26.4426 27.3904C25.7002 26.1104 25.329 24.6256 25.329 22.936V17.944C25.329 16.2544 25.7002 14.7824 26.4426 13.528C27.2106 12.248 28.2858 11.2624 29.6682 10.5712C31.0506 9.8544 32.6762 9.496 34.545 9.496C36.4394 9.496 38.065 9.8544 39.4218 10.5712C40.8042 11.2624 41.8666 12.248 42.609 13.528C43.377 14.7824 43.761 16.2544 43.761 17.944V22.936C43.761 24.6256 43.377 26.1104 42.609 27.3904C41.8666 28.6448 40.8042 29.6304 39.4218 30.3472C38.065 31.0384 36.4394 31.384 34.545 31.384ZM34.545 26.392C35.6714 26.392 36.529 26.0976 37.1178 25.5088C37.7066 24.8944 38.001 24.0368 38.001 22.936V17.944C38.001 16.8176 37.7066 15.96 37.1178 15.3712C36.529 14.7824 35.6714 14.488 34.545 14.488C33.4442 14.488 32.5866 14.7824 31.9722 15.3712C31.3834 15.96 31.089 16.8176 31.089 17.944V22.936C31.089 24.0368 31.3834 24.8944 31.9722 25.5088C32.5866 26.0976 33.4442 26.392 34.545 26.392ZM59.874 31C57.7236 31 56.034 30.3856 54.8052 29.1568C53.5764 27.928 52.962 26.2384 52.962 24.088V15.064H47.394V9.88H52.962V3.928H58.722V9.88H66.594V15.064H58.722V24.088C58.722 25.24 59.298 25.816 60.45 25.816H66.21V31H59.874ZM71.763 31V25.7776H79.059V15.064H72.723V9.88H84.435V25.7776H90.579V31H71.763ZM81.363 6.5392C80.3134 6.5392 79.4686 6.2704 78.8286 5.7328C78.2142 5.1952 77.907 4.4656 77.907 3.544C77.907 2.6224 78.2142 1.8928 78.8286 1.3552C79.4686 0.817598 80.3134 0.548797 81.363 0.548797C82.4126 0.548797 83.2446 0.817598 83.859 1.3552C84.499 1.8928 84.819 2.6224 84.819 3.544C84.819 4.4656 84.499 5.1952 83.859 5.7328C83.2446 6.2704 82.4126 6.5392 81.363 6.5392ZM103.62 31.384C101.751 31.384 100.126 31.0384 98.7432 30.3472C97.3608 29.6304 96.2856 28.6448 95.5176 27.3904C94.7752 26.1104 94.404 24.6256 94.404 22.936V17.944C94.404 16.2544 94.7752 14.7824 95.5176 13.528C96.2856 12.248 97.3608 11.2624 98.7432 10.5712C100.126 9.8544 101.751 9.496 103.62 9.496C105.514 9.496 107.14 9.8544 108.497 10.5712C109.879 11.2624 110.942 12.248 111.684 13.528C112.452 14.7824 112.836 16.2544 112.836 17.944V22.936C112.836 24.6256 112.452 26.1104 111.684 27.3904C110.942 28.6448 109.879 29.6304 108.497 30.3472C107.14 31.0384 105.514 31.384 103.62 31.384ZM103.62 26.392C104.746 26.392 105.604 26.0976 106.193 25.5088C106.782 24.8944 107.076 24.0368 107.076 22.936V17.944C107.076 16.8176 106.782 15.96 106.193 15.3712C105.604 14.7824 104.746 14.488 103.62 14.488C102.519 14.488 101.662 14.7824 101.047 15.3712C100.458 15.96 100.164 16.8176 100.164 17.944V22.936C100.164 24.0368 100.458 24.8944 101.047 25.5088C101.662 26.0976 102.519 26.392 103.62 26.392ZM117.659 31V9.88H123.227V13.912H124.917L123.227 15.256C123.227 13.464 123.739 12.056 124.763 11.032C125.787 10.008 127.17 9.496 128.911 9.496C130.959 9.496 132.597 10.2128 133.826 11.6464C135.08 13.08 135.707 14.9872 135.707 17.368V31H129.947V17.944C129.947 16.8432 129.653 15.9984 129.064 15.4096C128.501 14.7952 127.695 14.488 126.645 14.488C125.621 14.488 124.827 14.7952 124.264 15.4096C123.701 15.9984 123.419 16.8432 123.419 17.944V31H117.659Z" fill="black"/>
</svg>
