<svg width="16" height="16" viewBox="0 0 24 24" fill="none" xmlns="http://www.w3.org/2000/svg">
<g clip-path="url(#clip0_625_36)">
<path fill-rule="evenodd" clip-rule="evenodd" d="M6.16769 16.5104C7.56908 17.7881 9.45475 18.427 11.8248 18.427C14.2153 18.427 16.101 17.7984 17.4818 16.5413C18.8626 15.2636 19.553 13.5325 19.553 11.3479V2.67466C22.266 4.87475 24 8.23489 24 12C24 18.6274 18.6274 24 12 24C5.37259 24 0 18.6274 0 12C0 5.37259 5.37259 0 12 0C13.0057 0 13.9825 0.123719 14.916 0.356769V11.3479C14.916 12.2959 14.6378 13.0481 14.0814 13.6046C13.525 14.1404 12.7728 14.4083 11.8248 14.4083C10.8768 14.4083 10.1246 14.1301 9.5681 13.5737C9.01169 12.9966 8.73346 12.2341 8.73346 11.2861H4.09652C4.09652 13.4706 4.78692 15.2121 6.16769 16.5104Z" fill="black"/>
</g>
<defs>
<clipPath id="clip0_625_36">
<rect width="24" height="24" fill="white"/>
</clipPath>
</defs>
</svg>
