<svg width="691" height="720" viewBox="0 0 691 720" fill="none" xmlns="http://www.w3.org/2000/svg">
<path d="M119.101 126.231C141.496 144.425 149.897 143.036 191.948 140.231L588.397 116.426C596.802 116.426 589.81 108.038 587.01 106.644L521.165 59.0459C508.551 49.2517 491.741 38.0347 459.529 40.8405L75.6491 68.8395C61.6496 70.2277 58.8528 77.2272 64.4288 82.8384L119.101 126.231ZM142.903 218.622V635.755C142.903 658.171 154.106 666.56 179.321 665.173L615.015 639.963C640.242 638.576 643.053 623.152 643.053 604.944V190.612C643.053 172.43 636.061 162.625 620.615 164.024L165.31 190.612C148.508 192.023 142.903 200.428 142.903 218.622ZM43.4176 31.0464L442.715 1.64198C491.751 -2.56362 504.365 0.253502 535.186 22.6411L662.642 112.226C683.677 127.631 690.685 131.826 690.685 148.619V639.963C690.685 670.752 679.469 688.965 640.247 691.749L176.547 719.755C147.107 721.157 133.095 716.96 117.677 697.349L23.8133 575.568C6.99413 553.152 0 536.379 0 516.757V80.0219C0 54.84 11.2203 33.8352 43.4176 31.0464Z" fill="black"/>
<path d="M379.044 619.398C337.681 619.398 304.77 608.248 280.312 585.947C256.213 563.288 244.164 532.895 244.164 494.769H325.092C325.092 511.314 329.948 524.622 339.659 534.693C349.37 544.404 362.499 549.26 379.044 549.26C395.589 549.26 408.718 544.584 418.429 535.232C428.14 525.521 432.996 512.393 432.996 495.848V295.146H343.975V219.613H513.924V495.848C513.924 533.974 501.875 564.187 477.776 586.487C453.678 608.427 420.767 619.398 379.044 619.398Z" fill="black"/>
</svg>
